<svg id="bulb-on" width="100%" height="100%" viewBox="0 0 195 228"><g id="Layer-1"><path id="bulb-rays" d="M97.063,0c-3.663,0 -6.626,2.962 -6.626,6.625l0.001,17.688c-0.001,3.662 2.962,6.625 6.624,6.625c3.663,0 6.657,-2.963 6.657,-6.625l0,-17.688c0,-3.663 -2.994,-6.625 -6.656,-6.625Zm-62.5,25.125c-1.698,0 -3.424,0.642 -4.719,1.938c-2.59,2.589 -2.59,6.816 0,9.406l12.5,12.5c2.59,2.59 6.816,2.59 9.406,0c2.59,-2.59 2.59,-6.816 0,-9.407l-12.5,-12.499c-1.295,-1.296 -2.99,-1.938 -4.687,-1.938Zm125.031,0c-1.697,0 -3.392,0.642 -4.688,1.938l-12.5,12.5c-2.59,2.59 -2.59,6.816 0,9.406c2.59,2.59 6.785,2.59 9.375,0l12.5,-12.5c2.59,-2.59 2.59,-6.817 0,-9.406c-1.295,-1.296 -2.99,-1.938 -4.687,-1.938Zm-152.969,62.531c-3.663,0 -6.625,2.962 -6.625,6.625c0,3.663 2.962,6.656 6.625,6.656l17.688,0c3.662,0 6.625,-2.993 6.625,-6.656c0,-3.663 -2.963,-6.625 -6.625,-6.625l-17.688,0Zm163.219,0c-3.663,0 -6.625,2.962 -6.625,6.625c0,3.663 2.962,6.656 6.625,6.656l17.687,0c3.663,0 6.625,-2.993 6.625,-6.656c0,-3.663 -2.962,-6.625 -6.625,-6.625l-17.687,0Zm-131.594,50c-1.701,0 -3.392,0.674 -4.688,1.969l-12.499,12.5c-2.59,2.59 -2.59,6.785 0,9.375c1.295,1.295 2.989,1.937 4.687,1.937c1.697,0 3.392,-0.642 4.688,-1.937l12.531,-12.5c2.59,-2.59 2.59,-6.785 0,-9.375c-1.295,-1.295 -3.018,-1.969 -4.719,-1.969Zm116.156,0c-1.701,0 -3.392,0.674 -4.687,1.969c-2.59,2.59 -2.59,6.785 0,9.375l12.5,12.5c1.295,1.295 2.99,1.937 4.687,1.937c1.698,0 3.424,-0.642 4.719,-1.937c2.59,-2.59 2.59,-6.785 0,-9.375l-12.5,-12.5c-1.295,-1.295 -3.017,-1.969 -4.719,-1.969Z" /><path id="bulb" d="M97.07,39.112c-30.39,0 -59.687,23.64 -59.687,57.125c0,20.848 8.27,34.373 15.625,44.781c7.355,10.408 13.125,17.458 13.125,28.531l0,26.531c0,7.57 5.454,13.654 12.281,15.125c1.37,5.623 4.374,11.002 9.594,13.782c7.762,4.002 18.518,2.515 23.906,-4.625c2.04,-2.711 3.538,-5.912 4.156,-9.25c6.668,-1.603 11.969,-7.594 11.969,-15.032l0,-26.531c0,-11.073 5.77,-18.123 13.125,-28.531c7.355,-10.408 15.594,-23.933 15.594,-44.781c0,-33.485 -29.297,-57.125 -59.688,-57.125Zm0,13.25c23.531,0 46.438,18.19 46.438,43.875c0,17.538 -6.11,27.167 -13.125,37.093c-5.981,8.464 -13.09,17.373 -15.063,29.594l-36.468,0c-1.973,-12.221 -9.082,-21.13 -15.063,-29.594c-7.014,-9.926 -13.125,-19.555 -13.125,-37.093c0,-25.685 22.876,-43.875 46.406,-43.875Zm-10.437,6.625c-0.944,-0.034 -1.951,0.123 -2.969,0.375c-14.389,5.425 -25.156,18.085 -27.906,33.562c-0.597,3.437 1.938,7.153 5.375,7.75c3.437,0.597 7.154,-2.031 7.75,-5.469c1.926,-10.842 9.419,-19.71 19.469,-23.5c2.881,-1.071 4.755,-4.348 4.218,-7.375c-0.797,-3.712 -3.106,-5.241 -5.937,-5.343Zm-7.25,117.187l35.375,0l0,4.438l-35.375,0l0,-4.438Zm0,17.688l35.375,0l0,2.218c0,1.445 -1.119,2.188 -2.219,2.188l-30.937,0c-1.101,0 -2.219,-0.743 -2.219,-2.188l0,-2.218Zm11,17.687l13.906,0c-1.077,2.273 -2.938,4.155 -5.562,4.313c-3.164,0.583 -6.964,-0.697 -8.157,-3.907c-0.066,-0.132 -0.127,-0.272 -0.187,-0.406Z" /></g></svg>