<svg width="100%" height="100%" viewBox="0 0 512 512" xmlns="http://www.w3.org/2000/svg"><path id="path3000" d="M64.538,506.904c0,-10.978 6.981,-44.246 13.148,-62.659c19.893,-59.393 56.945,-102.844 108.628,-127.388l16.112,-7.652l-7.87,-4.749c-23.221,-14.015 -45.516,-47.157 -50.686,-75.347c-5.051,-27.546 1.128,-57.809 16.851,-82.533c37.474,-58.925 120.423,-69.696 172.664,-22.421c53.343,48.273 48.055,137.468 -10.507,177.2c-5.959,4.043 -10.787,7.835 -10.73,8.427c0.058,0.591 9.956,5.896 21.995,11.789c19.43,9.509 24.453,13.256 44.694,33.344c24.278,24.095 36.865,42.661 49.499,73.008c8.064,19.37 15.988,49.848 18.083,69.556l1.544,14.521l-191.712,0l-191.713,0l0,-5.096Z"/></svg>